<svg xmlns="http://www.w3.org/2000/svg" viewBox="0 0 616.862 509.39">
  <defs>
    <style>
      .cls-1 {
        fill: #6dc7ca;
        opacity: 0.25;
      }

      .cls-13, .cls-2, .cls-54 {
        fill: #9edbda;
      }

      .cls-2 {
        opacity: 0.1;
      }

      .cls-3 {
        fill: #e5bdaa;
      }

      .cls-4 {
        fill: #f2d0bd;
      }

      .cls-5 {
        fill: #d93439;
      }

      .cls-6 {
        fill: #c9252a;
      }

      .cls-7 {
        fill: #d6a08b;
      }

      .cls-8 {
        fill: #ee484d;
      }

      .cls-9 {
        fill: #1c1c2b;
      }

      .cls-10 {
        fill: #25253a;
      }

      .cls-11, .cls-42 {
        fill: #2e2d44;
      }

      .cls-12, .cls-38, .cls-39 {
        fill: none;
        stroke-miterlimit: 10;
      }

      .cls-12 {
        stroke: #2e2d44;
      }

      .cls-13 {
        opacity: 0.2;
      }

      .cls-14 {
        fill: #89b4ca;
      }

      .cls-15 {
        fill: #abcddb;
      }

      .cls-16 {
        fill: #3c2d6d;
      }

      .cls-17 {
        fill: #350a0a;
      }

      .cls-18 {
        fill: #131344;
      }

      .cls-19 {
        fill: #090926;
      }

      .cls-20 {
        fill: #292954;
      }

      .cls-21 {
        fill: #353563;
      }

      .cls-22 {
        fill: #444475;
      }

      .cls-23 {
        fill: #5a605f;
      }

      .cls-24 {
        fill: #414746;
      }

      .cls-25 {
        fill: #5c3f93;
      }

      .cls-26 {
        fill: #4c3682;
      }

      .cls-27 {
        fill: #470e0e;
      }

      .cls-28 {
        fill: #1f1f54;
      }

      .cls-29 {
        fill: #4e7091;
        opacity: 0.65;
      }

      .cls-30 {
        fill: #fcf6f1;
      }

      .cls-31 {
        fill: #cac5c1;
      }

      .cls-32 {
        fill: #ac48ee;
      }

      .cls-33 {
        fill: #5d6060;
      }

      .cls-34 {
        fill: #7b7c7c;
      }

      .cls-35 {
        fill: #9e30e6;
      }

      .cls-36 {
        fill: #646565;
      }

      .cls-37 {
        fill: #ffa811;
      }

      .cls-38 {
        stroke: #cedbdb;
        stroke-width: 2px;
        opacity: 0.75;
      }

      .cls-38, .cls-39 {
        stroke-linecap: round;
      }

      .cls-39 {
        stroke: #23233a;
        stroke-width: 0.75px;
      }

      .cls-40 {
        fill: #21212d;
      }

      .cls-41 {
        fill: #565684;
      }

      .cls-42 {
        opacity: 0.5;
      }

      .cls-43 {
        fill: #5d5f66;
      }

      .cls-44 {
        fill: #434449;
      }

      .cls-45 {
        fill: #e5d5bd;
      }

      .cls-46 {
        fill: #f2eee9;
      }

      .cls-47 {
        fill: #ca4b29;
      }

      .cls-48 {
        fill: #874229;
      }

      .cls-49 {
        fill: #fa9485;
      }

      .cls-50 {
        fill: #e55b29;
      }

      .cls-51 {
        fill: #e86e49;
      }

      .cls-52 {
        fill: #f7eddc;
      }

      .cls-53 {
        fill: #d36c67;
      }
    </style>
  </defs>
  <g id="Asset_2" data-name="Asset 2" transform="translate(0)">
    <g id="Layer_1" data-name="Layer 1" transform="translate(0)">
      <path id="Path_1" data-name="Path 1" class="cls-1" d="M608.542,57.92V345.459l-159.918-1.485-92.246-.859-136.947,4.913a7.958,7.958,0,0,0,7.077-9.687l-17.051-78.516A12.287,12.287,0,0,0,197.521,250l-108.692.2a2.4,2.4,0,0,1-.817-4.658Z" transform="translate(5.274 3.535)"/>
      <path id="Path_2" data-name="Path 2" class="cls-2" d="M593.7,343h0l-159.834.541c0-.69-.053-1.379-.085-2.122-.944-18.9-6.8-36.33-12.319-48.054q-1.21-2.578-2.355-5.231a70.251,70.251,0,0,0-19.194-25.868,76.067,76.067,0,0,0-18.77-11.47,82.362,82.362,0,0,0-15.714-4.987,26.016,26.016,0,0,0-12.032-.785,25.656,25.656,0,0,0-19.427,15.714H329.61a54.606,54.606,0,0,0,2.483-9.326v.064a30.346,30.346,0,0,0,7.066-10.09c3.767-8.265,5.952-20.011,5.952-35.682a38.663,38.663,0,0,0-2.854-14.7L593.722,98.39Z" transform="translate(20.116 6.005)"/>
      <g id="Group_1" data-name="Group 1" transform="translate(234.307 172.254)">
        <path id="Path_3" data-name="Path 3" class="cls-3" d="M329.978,293.1l-6.769,17.242a5.1,5.1,0,0,1-6.61,2.886l-73.073-27.8-7.289-2.854a11.894,11.894,0,0,0-11.47,1.56c-.2.159-.4.308-.584.477a11.47,11.47,0,0,0-3.353,4.679l18.366,7.2,74.792,37.38-.064.159,7.1,2.791a12.732,12.732,0,0,0,16.478-7.183l11.427-29.093Z" transform="translate(-220.83 -155.058)"/>
        <path id="Path_4" data-name="Path 4" class="cls-4" d="M340.564,297.347l-8.255,21.019a12.615,12.615,0,0,1-3.873,5.305h0a12.669,12.669,0,0,1-12.594,1.846l-7.1-2.79.053-.138-67.322-31.831a.531.531,0,0,0-.244-.1h0l-16.69-6.525a11.894,11.894,0,0,1,11.48-1.56l80.362,30.664a5.1,5.1,0,0,0,6.61-2.886l6.769-17.242Z" transform="translate(-220.604 -155.058)"/>
        <path id="Path_5" data-name="Path 5" class="cls-5" d="M358.275,263.108l-16.977,42.9-18.918-7.427,16.977-42.9a10.207,10.207,0,0,1,6.547-6.016,10.081,10.081,0,0,1,3.883-.393,9.963,9.963,0,0,1,2.759.668,10.2,10.2,0,0,1,5.73,13.21Z" transform="translate(-214.632 -157.044)"/>
        <path id="Path_6" data-name="Path 6" class="cls-6" d="M357.882,263.108l-16.976,42.9L328.82,301.23l20.531-51.99a9.964,9.964,0,0,1,2.759.668,10.2,10.2,0,0,1,5.73,13.21Z" transform="translate(-214.239 -157.043)"/>
        <rect id="Rectangle_11" data-name="Rectangle 11" class="cls-7" width="39.778" height="12.531" transform="translate(96.278 94.584)"/>
        <path id="Path_7" data-name="Path 7" class="cls-8" d="M430.482,372.364c-.9,7.427-4.424,11.258-4.424,11.258l-7.5-8.043c-3.661,11.183-13.475,11.788-26.176,10.334-11.968-1.369-9.443-4.032-18.632-11.809-7.544-6.366-4.244-14.557-3.7-16.043a68.543,68.543,0,0,0,4.732-22.7,78.781,78.781,0,0,0-5.634-32.966h0c-2.854-6.759-6.515-11.788-10.313-14.016a10.105,10.105,0,0,0-1.178-.615A114.083,114.083,0,0,1,345.8,282.06a38.322,38.322,0,0,1-7.342-5.305,19.491,19.491,0,0,1-6.366-11.767,20.963,20.963,0,0,1-.223-3.183,25.136,25.136,0,0,1,1.878-9.369A25.666,25.666,0,0,1,353.229,236.7a26.06,26.06,0,0,1,12.032.785,82.1,82.1,0,0,1,15.714,4.987,75.759,75.759,0,0,1,18.77,11.47,70.314,70.314,0,0,1,19.268,25.879q1.146,2.653,2.356,5.231c5.708,12.138,11.788,30.43,12.4,50.112C434.1,346.1,431.989,359.972,430.482,372.364Z" transform="translate(-214.053 -157.831)"/>
        <path id="Path_8" data-name="Path 8" class="cls-4" d="M335.891,199.62v42.526a20.6,20.6,0,0,1-.127,2.334h0a25.619,25.619,0,0,1-.393,2.589,31.978,31.978,0,0,1-2.568,7.565,49.708,49.708,0,0,1-8.679,12.531c-6.239,6.7-13.433,11.183-17.592,11.183-2.525,0-5.061.806-7.692.806a30.621,30.621,0,0,1-30.6-29.709c0-.721,0-1.464,0-2.2l1.528-35.332.286-6.472v-.934l.191-4.86Z" transform="translate(-217.937 -160.071)"/>
        <path id="Path_9" data-name="Path 9" class="cls-3" d="M335.443,199.62v42.526c0,17.8-21.03,33.391-29.359,36.224-14.143-3.4-24.542-17.348-23.894-33.677h0a109.561,109.561,0,0,0-2.982-29.932L275.58,199.62Z" transform="translate(-217.489 -160.071)"/>
        <path id="Path_10" data-name="Path 10" class="cls-9" d="M337.108,230.663a79.571,79.571,0,0,1-1.061,14.388v.064a55.173,55.173,0,0,1-2.483,9.263,66.064,66.064,0,0,1-2.642,6.281,24.2,24.2,0,0,1-4.531,6.26,98.16,98.16,0,0,1-9.963,8.393c-5.73,4.573-12.361,14.78-18.9,19.4a10.462,10.462,0,0,1-6.08,1.549c-9.2,0-17.369-6.037-20.775-14.557-3.883-9.74-7.735-23.8-2.292-32.542a5.587,5.587,0,0,1,.478-.764c1.761-2.5,7.427-3.968,13.974-5.305,10.462-2.048,23.279-3.682,26.526-8.372,5.305-7.629-4.244-25.465-4.244-25.465l.329-.393c4.923-5.931,12.382-5.846,18.833-1.878h0A27.587,27.587,0,0,1,335.952,222.9,29.58,29.58,0,0,1,337.108,230.663Z" transform="translate(-218.092 -159.793)"/>
        <path id="Path_11" data-name="Path 11" class="cls-10" d="M349.029,201.895c0,15.671-2.175,27.417-5.952,35.682a30.3,30.3,0,0,1-7.066,10.09V247.6l-.127-.828c-3.554-22.8-12.8-29.772-30.77-35.014l-.52-.149c-.806-.223-1.613-.456-2.462-.679a99.124,99.124,0,0,0-16.064-2.546c-3.056-.308-5.974-.478-8.488-.584-1.57-.064-2.96-.085-4.1-.085a6.218,6.218,0,0,1-3.332-1.008,7.511,7.511,0,0,1-2.621-2.854c-6.366-14.016,2.122-30.1,19.969-37.465a55.694,55.694,0,0,1,17.114-3.926c18.727-1.369,35.12,9,41.508,24.7A38.528,38.528,0,0,1,349.029,201.895Z" transform="translate(-218.108 -162.346)"/>
        <path id="Path_12" data-name="Path 12" class="cls-11" d="M345.453,210.614a133.2,133.2,0,0,1-2.377,26.749,30.3,30.3,0,0,1-7.066,10.09v-.064l-.127-.828c-3.554-22.8-12.8-29.772-30.77-35.014l-.52-.149c-.806-.223-1.613-.456-2.462-.679a99.127,99.127,0,0,0-16.064-2.546c-3.056-.308-5.974-.477-8.488-.584-1.57-.064-2.96-.085-4.1-.085a6.218,6.218,0,0,1-3.332-1.008,7.511,7.511,0,0,1-2.621-2.854c-6.366-14.016,2.122-30.1,19.969-37.465a70.161,70.161,0,0,1,7.024-.87c19.6-1.464,36.988,8.35,45.444,23.82a44.372,44.372,0,0,1,5.486,21.486Z" transform="translate(-218.108 -162.174)"/>
        <ellipse id="Ellipse_1" data-name="Ellipse 1" class="cls-12" cx="1.952" cy="9.358" rx="1.952" ry="9.358" transform="translate(53.815 52.08)"/>
        <path id="Path_13" data-name="Path 13" class="cls-12" d="M275.23,220.261s24.669-10.356,29.932-11.671,20.892-1.91,20.892-1.91" transform="translate(-217.51 -159.64)"/>
        <path id="Path_14" data-name="Path 14" class="cls-8" d="M358.45,259.585V305.74H338.11V259.585a10.207,10.207,0,0,1,3.883-8,10.08,10.08,0,0,1,3.47-1.783,9.962,9.962,0,0,1,2.812-.393,10.2,10.2,0,0,1,10.175,10.175Z" transform="translate(-213.672 -157.032)"/>
        <path id="Path_15" data-name="Path 15" class="cls-5" d="M358.029,259.583v46.155H345V249.833a9.962,9.962,0,0,1,2.812-.393,10.2,10.2,0,0,1,10.175,10.175Z" transform="translate(-213.252 -157.031)"/>
        <path id="Path_16" data-name="Path 16" class="cls-3" d="M364,302.5v31.3a12.732,12.732,0,0,1-12.732,12.732h-7.629v-.17l-96.554-8.287V326.193h91.44a5.1,5.1,0,0,0,5.1-5.1V302.5Z" transform="translate(-219.227 -153.792)"/>
        <path id="Path_17" data-name="Path 17" class="cls-3" d="M248.265,324.77v11.915H228.53a11.47,11.47,0,0,1,1.422-5.581c.106-.223.244-.435.371-.658a11.894,11.894,0,0,1,10.112-5.645Z" transform="translate(-220.36 -152.433)"/>
        <path id="Path_18" data-name="Path 18" class="cls-4" d="M356.313,302.5v22.579a12.615,12.615,0,0,1-1.676,6.366h0a12.669,12.669,0,0,1-11,6.366h-7.65v-.149l-87.556-5.846a.531.531,0,0,0-.265,0H230.22a11.894,11.894,0,0,1,10.112-5.645H339.6a5.1,5.1,0,0,0,5.1-5.1V302.5Z" transform="translate(-220.257 -153.792)"/>
      </g>
      <path id="Path_19" data-name="Path 19" class="cls-13" d="M347.081,278.253v48.383a5.1,5.1,0,0,1-5.1,5.1H242.718a11.894,11.894,0,0,0-10.112,5.645c-.127.223-.265.435-.371.658l-19.7.7a7.937,7.937,0,0,0,7.586-9.7l-17.051-78.516a12.3,12.3,0,0,0-11.947-9.836l83.291-29.422L272.883,246.6v2.2c-5.454,8.743-1.592,22.8,2.292,32.542,3.4,8.488,11.576,14.6,20.775,14.557a10.462,10.462,0,0,0,6.08-1.549c6.536-4.626,13.167-14.854,18.9-19.4a98.169,98.169,0,0,0,9.963-8.393h9.878a19.492,19.492,0,0,0,6.313,11.693Z" transform="translate(11.664 12.894)"/>
      <path id="Path_20" data-name="Path 20" class="cls-14" d="M219.576,337.012,75.69,239.143l122.485-.223a12.3,12.3,0,0,1,11.947,9.836l17.051,78.516a7.936,7.936,0,0,1-7.6,9.74Z" transform="translate(4.62 14.581)"/>
      <path id="Path_21" data-name="Path 21" class="cls-15" d="M212.531,337.012l-21.4-98.092a12.3,12.3,0,0,1,11.947,9.836l17.051,78.516a7.936,7.936,0,0,1-7.6,9.74Z" transform="translate(11.665 14.581)"/>
      <rect id="Rectangle_12" data-name="Rectangle 12" class="cls-16" width="108.618" height="21.73" transform="matrix(0.73, 0.684, -0.684, 0.73, 350.332, 392.856)"/>
      <path id="Path_22" data-name="Path 22" class="cls-17" d="M415.971,445.206v3.4l-29.709,31.746a7.046,7.046,0,0,1-5.135,2.228H367.8a6.716,6.716,0,0,1,1.825-4.817l36.51-38.961a2.058,2.058,0,0,1,2.907-.1Z" transform="translate(22.447 26.74)"/>
      <path id="Path_23" data-name="Path 23" class="cls-17" d="M413.5,447.9l-.3.318V444.8l.2.191A2.058,2.058,0,0,1,413.5,447.9Z" transform="translate(25.218 27.146)"/>
      <rect id="Rectangle_13" data-name="Rectangle 13" class="cls-18" width="15.406" height="130.241" transform="translate(183.463 379.095)"/>
      <rect id="Rectangle_14" data-name="Rectangle 14" class="cls-19" width="5.836" height="130.241" transform="translate(198.869 379.095)"/>
      <rect id="Rectangle_15" data-name="Rectangle 15" class="cls-20" width="33.242" height="13.348" transform="translate(140.958 351.583)"/>
      <rect id="Rectangle_16" data-name="Rectangle 16" class="cls-21" width="29.963" height="13.348" transform="translate(140.958 351.583)"/>
      <path id="Path_24" data-name="Path 24" class="cls-22" d="M222.1,337.01H99.135a12.318,12.318,0,0,1-11.947-9.857L70.212,248.637a7.894,7.894,0,0,1,7.544-9.677H200.7a12.3,12.3,0,0,1,11.947,9.836L229.7,327.312a7.936,7.936,0,0,1-7.6,9.7Z" transform="translate(4.273 14.584)"/>
      <path id="Path_25" data-name="Path 25" class="cls-22" d="M161.09,298.74v34.611h18.664Z" transform="translate(9.831 18.232)"/>
      <path id="Path_26" data-name="Path 26" class="cls-23" d="M490.7,260.239,461.87,408.2c-1.984,10.2-8.074,12.732-22.048,14.854-2.536.371-61.9,1.188-61.9,1.188a18.144,18.144,0,0,1-17.751-14.43,18.927,18.927,0,0,1-.34-4.562c.446-9.751,8.849-17.242,18.6-17.242H424.2a4.053,4.053,0,0,0,3.968-3.289l25.465-131.154c1.92-9.931,11.236-16.976,21.221-15.544a18.473,18.473,0,0,1,4.669,1.316A18.812,18.812,0,0,1,490.7,260.239Z" transform="translate(21.959 14.515)"/>
      <path id="Path_27" data-name="Path 27" class="cls-24" d="M490.678,260.149,461.85,408.11c-1.984,10.2-8.074,12.732-22.048,14.854-2.536.371-61.9,1.188-61.9,1.188a18.144,18.144,0,0,1-17.751-14.43,18.907,18.907,0,0,1,9.963-2.822h66.951a11.4,11.4,0,0,0,11.183-9.218l30.579-155.518a18.247,18.247,0,0,1,.785-2.865A18.812,18.812,0,0,1,490.678,260.149Z" transform="translate(21.98 14.604)"/>
      <path id="Path_28" data-name="Path 28" class="cls-25" d="M432.742,366.234v1.92a18.738,18.738,0,0,1-1.783,8.043,19.1,19.1,0,0,1-17.284,11.035H338.013a4.414,4.414,0,0,0-3.947,6.366l38.717,77.232a6.61,6.61,0,0,1-2.96,8.87l-1.348.679a14.335,14.335,0,0,1-2.419.955,15.258,15.258,0,0,1-18.1-7.682L309.9,397.714a129.914,129.914,0,0,0-10.61-16.626A14.621,14.621,0,0,1,311.307,358H424.466a8.276,8.276,0,0,1,8.276,8.234Z" transform="translate(18.101 21.849)"/>
      <path id="Path_29" data-name="Path 29" class="cls-26" d="M429.616,375.151a19.1,19.1,0,0,1-17.284,11.035H336.669a4.414,4.414,0,0,0-3.947,6.366l38.717,77.232a6.61,6.61,0,0,1-2.96,8.87l-1.347.679a14.335,14.335,0,0,1-2.419.955l-32.828-65.5a129.028,129.028,0,0,0-10.61-16.626,14.61,14.61,0,0,1,11.947-23.035Z" transform="translate(19.444 22.894)"/>
      <path id="Path_30" data-name="Path 30" class="cls-27" d="M317.909,467h53.4a2.058,2.058,0,0,1,2.058,2.058v9.772a2.058,2.058,0,0,1-2.058,2.058H311.15v-7.12a6.759,6.759,0,0,1,6.759-6.759Z" transform="translate(18.99 28.501)"/>
      <path id="Path_31" data-name="Path 31" class="cls-28" d="M349.294,349.607v8.425a5.655,5.655,0,0,1-5.655,5.655H53.245a5.655,5.655,0,0,1-5.655-5.655v-8.425a5.666,5.666,0,0,1,5.655-5.677H343.638A5.666,5.666,0,0,1,349.294,349.607Z" transform="translate(2.905 20.99)"/>
      <path id="Path_32" data-name="Path 32" class="cls-18" d="M349.294,356.45v.817a5.655,5.655,0,0,1-5.655,5.655H53.245a5.655,5.655,0,0,1-5.655-5.655v-.817Z" transform="translate(2.905 21.754)"/>
      <path id="Path_33" data-name="Path 33" class="cls-6" d="M367.593,301c-2.854-6.759-6.515-11.788-10.313-14.016V259Z" transform="translate(21.805 15.807)"/>
      <path id="Path_34" data-name="Path 34" class="cls-22" d="M197.047,336h57.168a4.106,4.106,0,0,1,4.106,4.106v4.34H192.93v-4.34A4.106,4.106,0,0,1,197.047,336Z" transform="translate(11.775 20.506)"/>
      <path id="Path_35" data-name="Path 35" class="cls-29" d="M376.295,67.906C373.8,31.767,350.692,0,299.412,0c-42.929,0-76.532,31.576-83.471,73.211C207.22,125.53,247.189,182.837,254,185.383c-.159-.679-.3-1.294-.446-1.931a26.526,26.526,0,0,1,17.6-46.293c8,0,10.918,9.04,28.7,9.04C342.055,146.189,379.244,110.75,376.295,67.906Z" transform="translate(13.103)"/>
      <g id="Group_2" data-name="Group 2" transform="translate(289.714 22.08)">
        <path id="Path_36" data-name="Path 36" class="cls-30" d="M277.12,69.08h32.319l-3.7,48.956H281.067Z" transform="translate(-272.802 -17.864)"/>
        <path id="Path_37" data-name="Path 37" class="cls-31" d="M277.279,71.118l24.34,1.464a1.549,1.549,0,0,1,1.454,1.645l-.615,9.974-2.631,33.836h5.91L309.45,69.07H277.12Z" transform="translate(-272.802 -17.865)"/>
        <path id="Path_38" data-name="Path 38" class="cls-32" d="M309.776,83.33l-1.592,17.645H278.178L276.82,83.33Z" transform="translate(-272.82 -16.994)"/>
        <path id="Path_39" data-name="Path 39" class="cls-33" d="M311.182,66.693H275.5l4.435-4.9a2.2,2.2,0,0,1,1.623-.721h23.47a2.2,2.2,0,0,1,1.613.711Z" transform="translate(-272.9 -18.353)"/>
        <path id="Path_40" data-name="Path 40" class="cls-34" d="M309.538,66.693H275.5l4.435-4.9a2.2,2.2,0,0,1,1.623-.721h21.847a2.207,2.207,0,0,1,1.623.711Z" transform="translate(-272.9 -18.353)"/>
        <path id="Path_41" data-name="Path 41" class="cls-35" d="M308.324,83.33l-1.592,17.645H300.61l1.729-17.645Z" transform="translate(-271.368 -16.994)"/>
        <path id="Path_42" data-name="Path 42" class="cls-33" d="M313.921,67.128A2.122,2.122,0,0,1,311.8,69.25H275.225a2.175,2.175,0,1,1,0-4.35h36.521a2.175,2.175,0,0,1,2.175,2.228Z" transform="translate(-273.05 -18.119)"/>
        <path id="Path_43" data-name="Path 43" class="cls-36" d="M312.255,67.128a2.122,2.122,0,0,1-2.122,2.122H275.225a2.175,2.175,0,1,1,0-4.35h34.908A2.175,2.175,0,0,1,312.255,67.128Z" transform="translate(-273.05 -18.119)"/>
        <path id="Path_44" data-name="Path 44" class="cls-37" d="M1.136,0H6.048A1.061,1.061,0,0,1,7.109,1.064v1.5a.318.318,0,0,1-.318.318H.319A.318.318,0,0,1,0,2.56V1.1A1.061,1.061,0,0,1,1.136,0Z" transform="matrix(0.74, -0.672, 0.672, 0.74, 14.768, 74.902)"/>
        <path id="Path_45" data-name="Path 45" class="cls-37" d="M1.126,0H6.049A1.061,1.061,0,0,1,7.11,1.063v1.5a.318.318,0,0,1-.318.318H.319A.318.318,0,0,1,0,2.559V1.105A1.061,1.061,0,0,1,1.126,0Z" transform="matrix(-0.74, 0.672, -0.672, -0.74, 24.47, 74.897)"/>
        <path id="Path_46" data-name="Path 46" class="cls-38" d="M291.748,56.9s-4.34-9.878,5.952-15.587c8.69-4.817,5.072-11.47,1.666-15.353-2.122-2.419-12.456-4.435-12.616,4.881-.191,10.833,10.95,5.241,8.573.594" transform="translate(-272.214 -20.62)"/>
        <path id="Path_47" data-name="Path 47" class="cls-38" d="M285.108,40.28s-3.183,5-1.252,13.39" transform="translate(-272.429 -19.622)"/>
        <path id="Path_48" data-name="Path 48" class="cls-38" d="M306.289,20.81a17.878,17.878,0,0,1,3.576,17.5c-1.783,5.708-7.788,7.735-11.9,14.345" transform="translate(-271.53 -20.81)"/>
      </g>
      <line id="Line_1" data-name="Line 1" class="cls-39" x2="79.556" transform="translate(269.014 122.581)"/>
      <rect id="Rectangle_17" data-name="Rectangle 17" class="cls-40" width="12.425" height="71.418" transform="translate(438.418 437.919)"/>
      <path id="Path_49" data-name="Path 49" class="cls-41" d="M213.516,337.014H99.922c-8.987,0-11.353-3.724-12.647-9.486L78.956,288.27l-1.2-5.634-.329-1.623-.149-.658-7.1-31.8a7.937,7.937,0,0,1,7.756-9.666H191.52a12.531,12.531,0,0,1,12.266,9.825l17.475,78.516a7.958,7.958,0,0,1-7.746,9.783Z" transform="translate(4.272 14.579)"/>
      <path id="Path_50" data-name="Path 50" class="cls-42" d="M124.614,234.15a5.4,5.4,0,0,1-5.4,5.125H96.6c-.074,7.735-2.122,23.873-17.157,34.759a19.256,19.256,0,0,1-3.47,2.027l-1.061-4.785-.318-1.39-.127-.562.541-.382c15.035-10.876,17.093-27.024,17.146-34.759h23.183Z" transform="translate(4.545 14.29)"/>
      <path id="Path_51" data-name="Path 51" class="cls-43" d="M131.647,238.429a5.443,5.443,0,0,1-5.422,5.624H94.532c-.053,7.735-2.122,23.873-17.136,34.759a20.021,20.021,0,0,1-11.777,3.8H63.158a11.024,11.024,0,0,1-7.427-2.854l-4.456-4.043-2.78-2.5s-.053,0-.074-.074h0a6.6,6.6,0,0,1,2.928-11,6.718,6.718,0,0,1,1.772-.244,6.525,6.525,0,0,1,3.65,1.061h0a6.474,6.474,0,0,1,1.273,1.188l2.939,2.663a7.183,7.183,0,0,0,4.828,1.867,7.024,7.024,0,0,0,4.743-1.814A39.619,39.619,0,0,0,82.946,244.1a2.5,2.5,0,0,1-2.43-3.077l17.7-75.98c.18-.87.923-5.305,1.836-5.305,1.167,0,2.037,4.35,2.218,5.4l.647,3.5.743,4.074a4.806,4.806,0,0,0,4.18,3.947,3.417,3.417,0,0,0,.764,0l8.881-.318a4.859,4.859,0,0,0,4.594-3.979l2.058-11.311c.18-1.061,1.061-5.539,2.186-5.539s2.186,4.647,2.239,5.846l.149,3.852h0Z" transform="translate(2.839 9.491)"/>
      <path id="Path_52" data-name="Path 52" class="cls-44" d="M127.3,238.428a5.443,5.443,0,0,1-5.422,5.624h-4.17c3.459-7.427,0-71.673,0-71.673l2.058-11.311c.18-1.061,1.061-5.539,2.186-5.539s2.186,4.647,2.239,5.846Z" transform="translate(7.184 9.492)"/>
      <path id="Path_53" data-name="Path 53" class="cls-29" d="M76.9,93.575C63.6,77.978,42.378,71.293,19.1,88.588-.477,103.028-5.135,128.716,5.73,149.99c13.655,26.738,51.142,39.354,55.1,38.2l-.859-.732a14.992,14.992,0,0,1-7.586-26.993c3.639-2.7,8.011.435,16.106-5.549C87.694,140.716,92.67,112.058,76.9,93.575Z" transform="translate(0 4.783)"/>
      <g id="Group_6" data-name="Group 6" transform="translate(12.796 103.974)">
        <g id="Group_3" data-name="Group 3" transform="translate(37.497 25.058)">
          <path id="Path_54" data-name="Path 54" class="cls-45" d="M68.914,126.045a8.732,8.732,0,0,1,1.252,2.7c.753-1.061,1.061-2.61,0-4.679-2.716-5.4-9.613,1.454-9.613,1.454l-11.321-3.9-.69.18-.212,1.061,12.807,4.478S66.749,123.212,68.914,126.045Z" transform="translate(-47.343 -121.61)"/>
          <path id="Path_55" data-name="Path 55" class="cls-46" d="M66.583,131.065a7.172,7.172,0,0,0,3.639-2.4,8.732,8.732,0,0,0-1.252-2.7c-2.122-2.844-7.777,1.305-7.777,1.305L48.4,122.8l-1,5.072,12.2,4.8s.859,7.777,6.218,6.069S66.583,131.065,66.583,131.065Z" transform="translate(-47.4 -121.537)"/>
        </g>
        <g id="Group_5" data-name="Group 5">
          <path id="Path_56" data-name="Path 56" class="cls-47" d="M51.3,123.3c-10.069,3.268-19.1.944-26.6-3.406-3.183,7.427-7.427,12.287-10.25,11.4,1.39.594,20.16,8.265,36.3-2.854A14.09,14.09,0,0,1,51.3,123.3Z" transform="translate(-11.914 -96.657)"/>
          <path id="Path_57" data-name="Path 57" class="cls-48" d="M25.4,98.126a2.25,2.25,0,0,0-.552-.106l.944.286A2.227,2.227,0,0,0,25.4,98.126Z" transform="translate(-11.279 -97.992)"/>
          <path id="Path_58" data-name="Path 58" class="cls-48" d="M14.31,130.58h.021Z" transform="translate(-11.923 -96.005)"/>
          <path id="Path_59" data-name="Path 59" class="cls-49" d="M26.564,98.3,25.62,98c-3.289-.244-8.127,6.281-11.173,15.226v.127c-3.183,9.411-3.183,17.942,0,19.2h.159c2.822.891,7.077-4,10.25-11.4a40.283,40.283,0,0,0,1.475-3.852C29.4,108.239,29.461,99.931,26.564,98.3Z" transform="translate(-12.06 -97.994)"/>
          <g id="Group_4" data-name="Group 4" transform="translate(12.785 0.304)">
            <path id="Path_60" data-name="Path 60" class="cls-50" d="M25.829,98.28c1.443.817,2.122,3.268,2.122,6.653h0c5.4,3.024,8.541,7.682,7.013,10.409-1.2,2.122-4.913,2.451-9.061,1.061q-.159.5-.318.987c-.456,1.348-.944,2.631-1.475,3.852,7.427,4.34,16.531,6.674,26.6,3.406a8.287,8.287,0,0,1,.679-1.549C49.946,120.381,39.909,102.842,25.829,98.28Z" transform="translate(-24.11 -98.28)"/>
            <path id="Path_61" data-name="Path 61" class="cls-51" d="M34.861,114.959c1.528-2.727-1.613-7.427-7.013-10.409h0a40.6,40.6,0,0,1-2.037,11.438C29.959,117.41,33.672,117.091,34.861,114.959Z" transform="translate(-24.006 -97.897)"/>
          </g>
          <circle id="Ellipse_2" data-name="Ellipse 2" class="cls-47" cx="1.05" cy="1.05" r="1.05" transform="matrix(0.319, -0.948, 0.948, 0.319, 27.914, 23.931)"/>
          <circle id="Ellipse_3" data-name="Ellipse 3" class="cls-47" cx="1.369" cy="1.369" r="1.369" transform="matrix(0.319, -0.948, 0.948, 0.319, 23.262, 25.02)"/>
          <circle id="Ellipse_4" data-name="Ellipse 4" class="cls-47" cx="0.891" cy="0.891" r="0.891" transform="matrix(0.319, -0.948, 0.948, 0.319, 24.668, 21.637)"/>
          <circle id="Ellipse_5" data-name="Ellipse 5" class="cls-47" cx="0.637" cy="0.637" r="0.637" transform="matrix(0.319, -0.948, 0.948, 0.319, 19.586, 22.046)"/>
          <circle id="Ellipse_6" data-name="Ellipse 6" class="cls-47" cx="0.637" cy="0.637" r="0.637" transform="matrix(0.319, -0.948, 0.948, 0.319, 17.426, 24.18)"/>
          <circle id="Ellipse_7" data-name="Ellipse 7" class="cls-47" cx="0.637" cy="0.637" r="0.637" transform="matrix(0.319, -0.948, 0.948, 0.319, 16.391, 21.403)"/>
          <ellipse id="Ellipse_8" data-name="Ellipse 8" class="cls-52" cx="3.374" cy="1.125" rx="3.374" ry="1.125" transform="matrix(0.319, -0.948, 0.948, 0.319, 5.888, 20.864)"/>
          <path id="Path_62" data-name="Path 62" class="cls-53" d="M16.508,109.745a19.746,19.746,0,0,0-2.578,7.427s.053.806,1.146.753,2.186-1.581,2.493-2.875,1.464-4.244.159-5.241C16.89,109.129,16.508,109.745,16.508,109.745Z" transform="translate(-11.946 -97.292)"/>
          <path id="Path_63" data-name="Path 63" class="cls-53" d="M20.8,103.585s-1.889,6.165,0,7.215,3.8-1.231,4.488-1.91,2.409-4.318,1.273-6.26S21.064,101.123,20.8,103.585Z" transform="translate(-11.578 -97.785)"/>
          <path id="Path_64" data-name="Path 64" class="cls-53" d="M16.732,121.212s-2.78.361-3.321,1.963-.637,5.719.764,6.366,5.6-1.729,6.005-3.035S20.329,120.714,16.732,121.212Z" transform="translate(-12 -96.579)"/>
          <path id="Path_65" data-name="Path 65" class="cls-53" d="M21.954,115.308s-1.061,2.027-.35,3.077,2.345.828,2.9-.923,1.061-4.478-.658-4.371S21.954,115.308,21.954,115.308Z" transform="translate(-11.492 -97.073)"/>
        </g>
      </g>
      <path id="Path_66" data-name="Path 66" class="cls-54" d="M578.51,328.93l3.045.032-3.045.011Z" transform="translate(35.306 20.074)"/>
    </g>
  </g>
</svg>
