<svg xmlns="http://www.w3.org/2000/svg" viewBox="0 0 142 142"><defs><style>.a{fill:none;}.b,.c{stroke:none;}.c{fill:#ac48ee;}</style></defs><g class="a"><path class="b" d="M71,0A71,71,0,1,1,0,71,71,71,0,0,1,71,0Z"/><path class="c" d="M 71 25 C 45.635498046875 25 25 45.635498046875 25 71 C 25 96.364501953125 45.635498046875 117 71 117 C 96.364501953125 117 117 96.364501953125 117 71 C 117 45.635498046875 96.364501953125 25 71 25 M 71 0 C 110.2122039794922 0 142 31.78778839111328 142 71 C 142 110.2122039794922 110.2122039794922 142 71 142 C 31.78778839111328 142 0 110.2122039794922 0 71 C 0 31.78778839111328 31.78778839111328 0 71 0 Z"/></g></svg>