<svg xmlns="http://www.w3.org/2000/svg" viewBox="0 0 180 180"><defs><style>.a{fill:none;}.b,.c{stroke:none;}.c{fill:#f9da5c;}</style></defs><g class="a"><path class="b" d="M90,0A90,90,0,1,1,0,90,90,90,0,0,1,90,0Z"/><path class="c" d="M 90 25 C 54.15889739990234 25 25 54.15889739990234 25 90 C 25 125.8410949707031 54.15889739990234 155 90 155 C 125.8410949707031 155 155 125.8410949707031 155 90 C 155 54.15889739990234 125.8410949707031 25 90 25 M 90 0 C 139.7056579589844 0 180 40.29435729980469 180 90 C 180 139.7056579589844 139.7056579589844 180 90 180 C 40.29435729980469 180 0 139.7056579589844 0 90 C 0 40.29435729980469 40.29435729980469 0 90 0 Z"/></g></svg>