<svg xmlns="http://www.w3.org/2000/svg" viewBox="0 0 87.401 87.401"><defs><style>.a{fill:none;}.b,.c{stroke:none;}.c{fill:#ee484d;}</style></defs><g class="a"><path class="b" d="M43.7,0A43.7,43.7,0,1,1,0,43.7,43.7,43.7,0,0,1,43.7,0Z"/><path class="c" d="M 43.70025634765625 25.00000762939453 C 33.38890075683594 25.00000762939453 25.00000762939453 33.38890075683594 25.00000762939453 43.70025634765625 C 25.00000762939453 54.01161193847656 33.38890075683594 62.40050506591797 43.70025634765625 62.40050506591797 C 54.01161193847656 62.40050506591797 62.40050506591797 54.01161193847656 62.40050506591797 43.70025634765625 C 62.40050506591797 33.38890075683594 54.01161193847656 25.00000762939453 43.70025634765625 25.00000762939453 M 43.70025634765625 7.62939453125e-06 C 67.83525848388672 7.62939453125e-06 87.40050506591797 19.56529235839844 87.40050506591797 43.70025634765625 C 87.40050506591797 67.83525848388672 67.83525848388672 87.40050506591797 43.70025634765625 87.40050506591797 C 19.56529235839844 87.40050506591797 7.62939453125e-06 67.83525848388672 7.62939453125e-06 43.70025634765625 C 7.62939453125e-06 19.56529235839844 19.56529235839844 7.62939453125e-06 43.70025634765625 7.62939453125e-06 Z"/></g></svg>